<svg width="210" height="49" viewBox="0 0 210 49" fill="none" xmlns="http://www.w3.org/2000/svg">
<path d="M18.9762 16.8463C19.8283 16.9339 20.6884 17.133 21.5564 17.4396C22.4244 17.7502 23.2088 18.1683 23.9136 18.6938C24.6184 19.2194 25.1917 19.8605 25.6337 20.6091C26.0757 21.3576 26.2947 22.2177 26.2947 23.1892C26.2071 24.4833 25.8328 25.4668 25.1718 26.1437C24.5109 26.8206 23.7185 27.3422 22.7907 27.7085C21.867 28.0748 20.8954 28.3536 19.8801 28.5447C18.8647 28.7358 17.9768 28.9787 17.2123 29.2733C15.8904 29.775 15.0104 30.4201 14.5684 31.2125C14.2141 31.9172 14.2658 32.7255 14.7237 33.6373C15.1776 34.5492 15.9063 35.2818 16.9057 35.8392C17.933 36.4285 19.1395 36.7192 20.5211 36.7192C21.7555 36.7192 22.8584 36.4246 23.826 35.8392C24.7975 35.2499 25.6695 34.5093 26.45 33.6134C27.2264 32.7176 27.9352 31.7102 28.5643 30.5953C29.1974 29.4804 29.7907 28.3775 30.3481 27.2904C30.9931 26.0561 31.6501 24.8297 32.3111 23.6113C32.9721 22.3929 33.7366 21.3059 34.6046 20.3503C35.4726 19.3946 36.476 18.6182 37.6227 18.013C38.7695 17.4117 40.1352 17.1091 41.72 17.1091C43.3047 17.1091 44.6784 17.4316 45.8411 18.0807C46.9998 18.7257 47.9474 19.5778 48.684 20.6369C49.4167 21.6961 49.9622 22.9145 50.3166 24.2962C50.6709 25.6778 50.8461 27.1152 50.8461 28.6164C50.8461 29.6158 50.6749 30.7824 50.3405 32.1203C50.002 33.4582 49.4724 34.7204 48.7557 35.9109C48.035 37.1015 47.1033 38.1088 45.9565 38.9291C44.8098 39.7533 43.4281 40.1634 41.8155 40.1634C40.6967 40.1634 39.6773 39.9444 38.7536 39.5025C37.8298 39.0605 36.8941 38.6344 35.9544 38.2243L35.9106 44.396C35.9106 45.0729 36.0659 45.718 36.3725 46.3351C36.6791 46.9523 37.1131 47.4659 37.6745 47.8761L38.1603 48.2304C38.2479 48.2902 38.2718 48.3778 38.228 48.4932C38.1842 48.6087 38.1045 48.6684 37.9851 48.6684H27.525C27.4056 48.6684 27.3339 48.6087 27.306 48.4932C27.2782 48.3738 27.306 48.2862 27.3936 48.2304L27.8794 47.9199C28.4369 47.5097 28.8629 46.9881 29.1576 46.355C29.4522 45.7219 29.5995 45.0689 29.5995 44.392V36.9422V32.7136C30.0096 31.9809 30.4198 31.2284 30.8339 30.4639C31.244 29.6994 31.6541 28.9349 32.0682 28.1704C32.6575 27.0237 33.2588 25.9247 33.8759 24.8656C34.4931 23.8064 35.1541 22.8548 35.8588 22.0027V22.4446V34.9155C35.8588 35.9746 36.1893 36.7312 36.8503 37.1851C37.5113 37.639 38.3116 37.8699 39.2513 37.8699C40.2786 37.8699 41.1227 37.5554 41.7837 36.9223C42.4446 36.2892 42.9822 35.5127 43.3923 34.585C43.8024 33.6612 44.0891 32.6618 44.2524 31.5867C44.4116 30.5156 44.4952 29.5242 44.4952 28.6124C44.4952 27.5254 44.4435 26.4025 44.34 25.2398C44.2364 24.0811 44.0334 23.014 43.7228 22.0425C43.4162 21.0709 42.9663 20.2786 42.377 19.6614C41.7877 19.0442 40.9953 18.7376 39.9959 18.7376C38.9367 18.7376 37.9692 19.0602 37.0852 19.7052C36.2052 20.3503 35.397 21.1386 34.6603 22.0624C33.9237 22.9862 33.2787 23.9736 32.7212 25.0169C32.1638 26.0601 31.678 26.9799 31.2679 27.7722C30.4437 29.3888 29.5398 31.0651 28.5563 32.7972C27.5728 34.5332 26.3902 36.0304 25.0086 37.2926C23.9494 38.292 22.7987 39.0207 21.5484 39.4746C20.2982 39.9285 19.0439 40.1555 17.7817 40.1555C17.2521 40.1555 16.7146 40.1196 16.1731 40.044C15.6276 39.9723 15.106 39.8449 14.6083 39.6697C12.5815 39.1122 10.949 38.1327 9.71469 36.7391C8.48035 35.3455 7.63622 33.7648 7.1823 32.0008C6.7244 30.2369 6.6368 28.4093 6.9195 26.514C7.19822 24.6187 7.83928 22.9225 8.83472 21.4253C9.83414 19.9282 11.184 18.7297 12.8881 17.8338C14.5963 16.9419 16.627 16.6114 18.9762 16.8463ZM13.2465 29.7591C13.362 30.2887 13.5849 30.3484 13.9075 29.9343C14.2897 29.4047 14.7675 28.9508 15.3409 28.5686C15.9143 28.1863 16.4996 27.812 17.1048 27.4457C17.7061 27.0794 18.3073 26.7051 18.9125 26.3229C19.5138 25.9406 20.0354 25.5026 20.4773 25.0009C20.9193 24.5032 21.2538 23.906 21.4927 23.2171C21.7276 22.5283 21.7993 21.6961 21.7117 20.7285C21.5365 19.8167 21.1463 19.1478 20.545 18.7217C19.9438 18.2957 19.2589 18.0846 18.4944 18.0846C17.9927 18.0846 17.4791 18.1722 16.9535 18.3474C15.8944 18.7297 15.0741 19.3588 14.4848 20.2427C13.8955 21.1227 13.4695 22.1142 13.2067 23.2171C12.9439 24.3201 12.8324 25.4509 12.8762 26.6096C12.916 27.7682 13.0394 28.8194 13.2465 29.7591ZM27.1308 20.3741L35.5483 16.9817C35.608 16.922 35.6717 16.922 35.7473 16.9817C35.819 17.0414 35.8588 17.1131 35.8588 17.2007V17.9055C34.8594 18.4629 33.8441 19.522 32.8168 21.0789C32.2872 21.8713 31.7457 22.7831 31.1843 23.8104C30.6268 24.8377 30.0813 25.869 29.5517 26.8962V24.7381C29.5517 23.886 29.3248 23.1056 28.8669 22.4008C28.413 21.6961 27.7998 21.1506 27.0393 20.7723C26.9795 20.7126 26.9596 20.6489 26.9716 20.5732C26.9915 20.4976 27.0432 20.4339 27.1308 20.3741Z" fill="white"/>
<path d="M53.1751 20.4182L61.5926 16.982C61.7996 16.9222 61.8992 16.9979 61.8992 17.201L61.943 35.5807C61.943 37.0221 62.5163 38.1808 63.6631 39.0607L64.1488 39.4151C64.2364 39.4748 64.2643 39.5624 64.2364 39.6779C64.2086 39.7934 64.1329 39.8531 64.0174 39.8531H53.5733C53.426 39.8531 53.3384 39.7934 53.3105 39.6779C53.2827 39.5624 53.3105 39.4709 53.3981 39.4151L53.8839 39.1045C54.4413 38.6944 54.8754 38.1728 55.1859 37.5397C55.4925 36.9066 55.6478 36.2536 55.6478 35.5767L55.604 24.7344C55.604 23.8823 55.385 23.1019 54.943 22.3971C54.5011 21.6924 53.8998 21.1628 53.1353 20.8084C53.0756 20.7487 53.0557 20.677 53.0676 20.5894C53.0796 20.5058 53.1154 20.4461 53.1751 20.4182ZM54.8515 11.4274C54.8515 10.5156 55.174 9.73916 55.823 9.09014C56.4681 8.44509 57.2485 8.11859 58.1603 8.11859C59.1 8.11859 59.8924 8.44111 60.5414 9.09014C61.1864 9.73518 61.5129 10.5156 61.5129 11.4274C61.5129 12.3671 61.1904 13.1595 60.5414 13.8085C59.8963 14.4536 59.1159 14.7801 58.2041 14.7801C57.2644 14.7801 56.472 14.4575 55.823 13.8085C55.174 13.1595 54.8515 12.3671 54.8515 11.4274Z" fill="white"/>
<path d="M77.4161 16.8027C78.4433 16.8027 79.4507 16.9739 80.4342 17.3084C81.4177 17.6468 82.3096 18.1445 83.102 18.8055C83.8944 19.4665 84.5394 20.2588 85.0411 21.1866C85.5388 22.1103 85.8056 23.1615 85.8335 24.3361C85.8335 24.4835 85.7897 24.5113 85.7021 24.4237L80.4143 22.616C80.3864 22.5882 80.3705 22.5444 80.3705 22.4846C80.5776 22.0427 80.693 21.5648 80.7249 21.0512C80.7528 20.5376 80.6731 20.0677 80.482 19.6417C80.2909 19.2156 79.9803 18.8573 79.5582 18.5626C79.1322 18.268 78.5509 18.1206 77.8182 18.1206C76.7033 18.1206 75.7397 18.5825 74.9314 19.5103C74.1232 20.434 73.5139 21.5887 73.1038 22.9704C72.6937 24.3521 72.5026 25.8412 72.5305 27.4419C72.5583 29.0426 72.845 30.5357 73.3905 31.9174C73.932 33.2991 74.7642 34.4458 75.8791 35.3536C76.994 36.2655 78.4354 36.7194 80.1993 36.7194C81.2863 36.7194 82.3136 36.5282 83.2852 36.146C84.2527 35.7638 85.0053 35.2501 85.5348 34.6051C85.71 34.402 85.8852 34.2985 86.0644 34.2985C86.2993 34.2985 86.4745 34.402 86.594 34.6051C86.7095 34.8121 86.6657 35.063 86.4626 35.3536C85.2561 37.0299 83.8904 38.2324 82.3654 38.9691C80.8364 39.7057 79.2795 40.072 77.6948 40.072C76.2852 40.072 74.9115 39.8012 73.5737 39.2557C72.2358 38.7142 71.0532 37.9537 70.0259 36.9861C68.9986 36.0146 68.1585 34.8559 67.5135 33.5061C66.8684 32.1563 66.514 30.6711 66.4543 29.0545C66.4264 27.4658 66.6614 25.9408 67.1591 24.4715C67.6568 23.0023 68.3855 21.7082 69.3411 20.5933C70.2967 19.4784 71.4633 18.5746 72.845 17.8817C74.2107 17.1929 75.7397 16.8345 77.4161 16.8027Z" fill="white"/>
<path d="M137.087 19.5341C137.147 19.6495 137.198 19.777 137.242 19.9084C137.286 20.0398 137.222 20.1512 137.043 20.2388L133.826 21.8714C133.651 21.959 133.519 22.0028 133.428 22.0028C133.34 22.0028 133.237 21.9152 133.121 21.74C132.297 20.4778 131.297 19.9044 130.123 20.0198C128.948 20.1393 127.61 20.6649 126.113 21.6086C125.496 21.9908 124.871 22.393 124.238 22.819C123.605 23.2451 123.003 23.6512 122.43 24.0295C121.857 24.4117 121.335 24.7661 120.865 25.0886C120.395 25.4111 120.013 25.6899 119.718 25.9248C118.484 26.8645 117.258 27.8281 116.039 28.8115C114.821 29.795 113.595 30.7745 112.36 31.7421C111.715 32.2717 111.006 32.865 110.246 33.5259C109.481 34.1869 108.689 34.8399 107.865 35.485C107.041 36.13 106.228 36.7392 105.42 37.3126C104.612 37.8859 103.827 38.3638 103.063 38.746C101.828 39.3632 100.53 39.7733 99.1647 39.9803C97.799 40.1874 96.5407 40.0839 95.398 39.6738C94.2512 39.2636 93.3036 38.4912 92.555 37.3604C91.8064 36.2295 91.4322 34.6209 91.4322 32.5345L91.3884 24.7342C91.3884 23.8821 91.1694 23.1017 90.7274 22.397C90.2854 21.6922 89.6842 21.1626 88.9197 20.8082C88.8599 20.7485 88.8361 20.6768 88.852 20.5892C88.8679 20.5016 88.9037 20.4419 88.9635 20.414L97.3809 16.9778C97.5879 16.9181 97.6875 16.9937 97.6875 17.1968L97.7313 32.5345C97.7313 33.3587 97.8866 34.0754 98.1932 34.6926C98.4998 35.3098 98.882 35.8115 99.3399 36.1897C99.7938 36.572 100.307 36.8427 100.881 37.006C101.454 37.1692 102.02 37.2051 102.577 37.1175C103.135 37.0299 103.875 36.7074 104.803 36.1459C105.731 35.5885 106.674 34.9434 107.646 34.2068C108.613 33.4742 109.533 32.7535 110.401 32.0487C111.269 31.3439 111.922 30.8144 112.36 30.46C113.595 29.4924 114.821 28.5129 116.039 27.5294C117.258 26.5459 118.484 25.5823 119.718 24.6427C120.571 23.9976 121.554 23.3048 122.673 22.5721C123.788 21.8395 124.923 21.075 126.065 20.2787C126.742 19.8088 127.336 19.3828 127.849 19.0005C128.363 18.6183 128.865 18.2958 129.346 18.029C129.832 17.7662 130.322 17.5512 130.824 17.3879C131.321 17.2286 131.867 17.1331 132.452 17.1012C133.069 17.0734 133.611 17.1172 134.085 17.2326C134.554 17.3521 134.965 17.5193 135.319 17.7383C135.669 17.9573 135.988 18.2241 136.267 18.5307C136.553 18.8532 136.824 19.1837 137.087 19.5341ZM106.061 24.7342C106.061 23.8821 105.842 23.1017 105.4 22.397C104.958 21.6922 104.357 21.1626 103.592 20.8082C103.533 20.7485 103.513 20.6768 103.525 20.5892C103.541 20.5016 103.576 20.4419 103.636 20.414L112.054 16.9778C112.261 16.9181 112.36 16.9937 112.36 17.1968V29.3172C111.154 30.2569 109.987 31.1847 108.856 32.0925C107.725 33.0043 106.69 33.7967 105.751 34.4736C105.898 34.0913 106.001 33.6096 106.061 33.0203C106.121 32.5783 106.121 32.1522 106.061 31.7421V24.7342ZM112.452 32.8451C112.567 33.522 112.842 34.1391 113.268 34.6966C113.694 35.254 114.232 35.696 114.877 36.0185C114.936 36.0782 114.956 36.1499 114.944 36.2375C114.928 36.3251 114.877 36.3848 114.789 36.4127L106.415 39.8489C106.181 39.9087 106.065 39.833 106.065 39.63V38.1328V37.87C106.83 37.3126 107.702 36.6357 108.685 35.8433C109.669 35.0509 110.764 34.167 111.97 33.1994C112.058 33.1397 112.137 33.084 112.213 33.0242C112.281 32.9645 112.364 32.9048 112.452 32.8451ZM119.591 23.6791C119.591 23.5915 119.547 23.4282 119.46 23.1933C119.372 22.9584 119.233 22.6956 119.042 22.4009C118.85 22.1063 118.608 21.8196 118.313 21.5409C118.018 21.2622 117.668 21.0193 117.254 20.8122C117.194 20.7525 117.174 20.6808 117.186 20.5932C117.202 20.5056 117.238 20.4459 117.298 20.418L125.715 16.9818C125.918 16.9221 126.022 16.9977 126.022 17.2008C126.022 17.5233 126.03 17.8617 126.045 18.2161C126.061 18.5665 126.065 18.905 126.065 19.2275C125.476 19.55 124.811 19.9561 124.059 20.4379C123.306 20.9197 122.45 21.517 121.478 22.2218C121.184 22.4288 120.877 22.6637 120.555 22.9265C120.236 23.1933 119.914 23.4442 119.591 23.6791ZM128.275 39.411C128.363 39.4707 128.391 39.5583 128.363 39.6738C128.335 39.7892 128.243 39.8489 128.1 39.8489H117.7C117.552 39.8489 117.465 39.7892 117.437 39.6738C117.405 39.5583 117.437 39.4667 117.525 39.411L118.01 39.1004C119.157 38.2204 119.73 37.0458 119.73 35.5765V27.0277C120.32 26.5579 120.897 26.1079 121.47 25.6819C122.044 25.2558 122.593 24.8537 123.123 24.4714C123.8 23.9737 124.385 23.5676 124.887 23.261C125.385 22.9544 125.842 22.6797 126.253 22.4447C126.105 22.827 126.034 23.2092 126.034 23.5915C126.034 25.6182 126.041 27.617 126.057 29.584C126.073 31.551 126.065 33.5498 126.034 35.5765C126.034 36.2534 126.189 36.8985 126.495 37.5156C126.802 38.1328 127.236 38.6465 127.793 39.0566L128.275 39.411Z" fill="white"/>
<path d="M150.792 16.846C151.645 16.9336 152.505 17.1327 153.373 17.4393C154.241 17.7498 155.025 18.1679 155.73 18.6935C156.435 19.2231 157.008 19.8602 157.45 20.6087C157.892 21.3573 158.111 22.2174 158.111 23.1889C158.023 24.483 157.649 25.4665 156.988 26.1434C156.327 26.8203 155.535 27.3419 154.607 27.7082C153.683 28.0745 152.712 28.3532 151.696 28.5444C150.685 28.7355 149.793 28.9784 149.029 29.273C147.707 29.7747 146.823 30.4198 146.385 31.2121C146.09 31.7696 146.098 32.3589 146.409 32.976C146.715 33.5932 147.201 34.1666 147.862 34.6962C148.523 35.2257 149.307 35.6597 150.219 35.9982C151.131 36.3366 152.071 36.5039 153.038 36.5039C153.89 36.5039 154.714 36.3486 155.507 36.042C156.299 35.7354 156.992 35.1979 157.577 34.4334C157.725 34.1984 157.916 34.079 158.151 34.079C158.298 34.079 158.437 34.1387 158.569 34.2542C158.7 34.3736 158.768 34.517 158.768 34.6962C158.74 34.8435 158.688 34.9669 158.613 35.0704C158.541 35.174 158.473 35.2855 158.413 35.4009C157.239 37.0772 155.881 38.2797 154.336 39.0164C152.795 39.749 151.23 40.1193 149.642 40.1193C147.675 40.0914 145.975 39.7171 144.553 38.9964C143.128 38.2758 141.961 37.344 141.049 36.1973C140.137 35.0505 139.484 33.7525 139.09 32.2952C138.696 30.8378 138.533 29.3646 138.604 27.8675C138.676 26.3703 139.002 24.921 139.576 23.5274C140.149 22.1338 140.942 20.9074 141.957 19.8482C142.972 18.7891 144.219 17.9848 145.704 17.4233C147.189 16.8619 148.885 16.6708 150.792 16.846ZM145.067 29.7588C145.182 30.2884 145.405 30.3481 145.728 29.934C146.11 29.4044 146.588 28.9505 147.161 28.5683C147.734 28.186 148.32 27.8117 148.925 27.4454C149.526 27.0791 150.131 26.7048 150.733 26.3225C151.334 25.9403 151.856 25.5023 152.298 25.0006C152.739 24.5029 153.078 23.9056 153.313 23.2168C153.548 22.5279 153.619 21.6958 153.532 20.7282C153.357 19.8164 152.966 19.1474 152.365 18.7214C151.764 18.2953 151.079 18.0843 150.315 18.0843C149.813 18.0843 149.303 18.1719 148.774 18.3471C147.715 18.7294 146.894 19.3585 146.305 20.2424C145.716 21.1224 145.294 22.1138 145.027 23.2168C144.764 24.3197 144.653 25.4505 144.696 26.6092C144.732 27.7679 144.86 28.8191 145.067 29.7588Z" fill="white"/>
<path d="M192.99 37.5154C193.301 38.1326 193.731 38.6462 194.292 39.0564L194.734 39.4107C194.85 39.4705 194.889 39.5581 194.846 39.6735C194.802 39.789 194.722 39.8487 194.603 39.8487H184.155C184.035 39.8487 183.963 39.789 183.936 39.6735C183.908 39.5581 183.936 39.4665 184.023 39.4107L184.465 39.1002C185.023 38.69 185.457 38.1764 185.763 37.5592C186.074 36.942 186.225 36.2811 186.225 35.5763V24.734C186.225 24.2363 186.153 23.7585 186.006 23.3006C185.859 22.8467 185.648 22.4803 185.365 22.1976C185.086 21.9189 184.74 21.7358 184.33 21.6482C183.92 21.5606 183.45 21.6322 182.92 21.8672C182.068 22.2215 181.005 22.6516 179.723 23.1652C178.445 23.6788 177.115 24.2602 175.733 24.9052C174.352 25.5503 172.978 26.255 171.612 27.0195C170.246 27.784 169.048 28.5923 168.021 29.4444C166.993 30.2965 166.205 31.1924 165.663 32.1321C165.118 33.0718 164.967 34.0274 165.201 34.995C165.436 35.7873 165.922 36.4045 166.655 36.8465C167.387 37.2885 168.14 37.4796 168.905 37.4199C169.669 37.3601 170.35 36.9938 170.955 36.3169C171.556 35.64 171.859 34.5968 171.859 33.1873V28.5246C171.859 28.3176 171.875 28.1065 171.903 27.8836C171.931 27.6646 172.154 27.4496 172.564 27.2425C172.771 27.1549 173.069 27.0315 173.468 26.8682C173.866 26.705 174.32 26.5138 174.833 26.2949C175.347 26.0759 175.885 25.8489 176.442 25.61C176.999 25.3751 177.545 25.1401 178.074 24.9052C178.102 25.1123 178.126 25.3153 178.142 25.5224C178.158 25.7294 178.166 25.9484 178.166 26.1834V32.6179C178.166 33.7367 178.262 34.6366 178.453 35.3294C178.644 36.0183 178.879 36.52 179.158 36.8266C179.436 37.1371 179.747 37.2765 180.085 37.2447C180.424 37.2168 180.722 37.0695 180.989 36.8027C181.136 36.6554 181.296 36.5757 181.475 36.5598C181.65 36.5439 181.797 36.5837 181.917 36.6713C182.032 36.7589 182.108 36.8903 182.136 37.0695C182.164 37.2447 182.108 37.4199 181.961 37.599C181.551 38.1565 180.953 38.702 180.177 39.2276C179.396 39.7571 178.497 40.0199 177.465 40.0199C176.613 40.0199 175.737 39.8288 174.841 39.4466C173.945 39.0643 173.217 38.3874 172.659 37.4199C172.512 37.1252 172.381 36.9858 172.261 37.0018C172.142 37.0177 172.01 37.0973 171.863 37.2447C170.895 38.1844 169.82 38.8891 168.646 39.359C167.471 39.8288 166.324 40.0478 165.209 40.0199C164.592 40.0199 163.959 39.8965 163.314 39.6457C162.669 39.3948 162.096 39.0364 161.594 38.5666C161.096 38.0968 160.682 37.5234 160.36 36.8465C160.037 36.1696 159.874 35.3931 159.874 34.5092C159.874 33.5098 160.228 32.5701 160.933 31.6901C161.638 30.8102 162.55 29.978 163.665 29.2015C164.779 28.4251 166.022 27.7044 167.387 27.0434C168.753 26.3825 170.099 25.7971 171.421 25.2795C172.743 24.7659 173.969 24.308 175.1 23.9138C176.231 23.5156 177.107 23.201 177.724 22.9661L192.226 16.9736C192.429 16.9139 192.532 16.9895 192.532 17.1926C192.532 17.5748 192.532 17.8894 192.532 18.1402C192.532 18.3911 192.548 18.7056 192.576 19.0879C192.576 19.2949 192.592 19.502 192.62 19.7051C192.648 19.9121 192.735 20.0276 192.883 20.0594C193.03 20.0594 193.197 19.9917 193.388 19.8604C193.579 19.729 193.747 19.6015 193.894 19.4861C194.921 18.8092 196.032 18.2597 197.223 17.8336C198.413 17.4076 199.58 17.1926 200.727 17.1926C201.607 17.1926 202.439 17.324 203.215 17.5908C203.992 17.8575 204.677 18.2876 205.266 18.8928C205.851 19.494 206.325 20.2824 206.675 21.25C207.03 22.2215 207.205 23.4081 207.205 24.8176V35.5723C207.205 36.2492 207.36 36.8943 207.667 37.5114C207.973 38.1286 208.395 38.6423 208.921 39.0524L209.407 39.4067C209.494 39.4665 209.522 39.5541 209.494 39.6695C209.467 39.785 209.391 39.8447 209.275 39.8447H198.831C198.712 39.8447 198.64 39.785 198.612 39.6695C198.58 39.5541 198.612 39.4625 198.7 39.4067L199.142 39.0962C199.699 38.6861 200.133 38.1644 200.44 37.5313C200.747 36.8982 200.902 36.2452 200.902 35.5683V24.8256C200.902 23.9735 200.695 23.217 200.285 22.556C199.875 21.895 199.361 21.3734 198.744 20.9912C198.127 20.6089 197.458 20.382 196.737 20.3063C196.016 20.2346 195.347 20.366 194.73 20.7045C194.113 21.0429 193.599 21.6083 193.185 22.4007C192.771 23.1931 192.568 24.2681 192.568 25.618L192.524 35.5763C192.528 36.2532 192.683 36.8982 192.99 37.5154ZM166.173 23.7664C166.288 23.651 166.348 23.5594 166.348 23.5036C166.408 22.2693 166.583 21.2699 166.878 20.5054C167.172 19.7409 167.539 19.1755 167.981 18.8092C168.423 18.4428 168.885 18.2597 169.37 18.2597C169.856 18.2597 170.302 18.4428 170.716 18.8092C171.126 19.1755 171.473 19.6971 171.751 20.374C172.03 21.0509 172.17 21.8592 172.17 22.7989V23.5912C172.17 23.8262 172.126 24.0611 172.038 24.296L177.855 22.1379C177.179 20.4616 176.127 19.1914 174.706 18.3274C173.28 17.4594 171.6 17.0293 169.661 17.0293C168.279 17.0293 167.069 17.2563 166.026 17.7102C164.982 18.1641 164.079 18.8132 163.314 19.6493C162.55 20.4855 161.925 21.4849 161.443 22.6476C160.957 23.8102 160.599 25.0924 160.364 26.5059C160.336 26.6214 160.356 26.7129 160.431 26.7687C160.503 26.8284 160.587 26.8284 160.674 26.7687L166.173 23.7664Z" fill="white"/>
<path d="M22.6561 16.5918C22.4251 16.4923 22.1942 16.4007 21.9553 16.3171C21.0036 15.9747 20.044 15.7557 19.0964 15.6561C18.5708 15.6044 18.0532 15.5765 17.5555 15.5765C15.6124 15.5765 13.8564 15.9826 12.3394 16.779C10.464 17.7665 8.9509 19.1083 7.84796 20.7647C7.67674 21.0195 7.51748 21.2823 7.37015 21.5491L5.47882 15.5526C5.82125 15.5008 6.16368 15.4292 6.50213 15.3217C7.621 14.9673 8.60847 14.3382 9.39288 13.494C10.6511 13.7011 11.9332 13.6095 13.1636 13.2193C14.3979 12.8291 15.5009 12.1681 16.4127 11.2802C17.5395 11.5191 18.7102 11.4673 19.8251 11.1169C20.1675 11.0094 20.49 10.8701 20.8006 10.7148L22.6561 16.5918Z" fill="white"/>
<path d="M16.6474 1.04694C16.1457 1.20621 15.6917 1.44113 15.2856 1.73578C13.6889 0.210773 11.3357 -0.418343 9.08205 0.290407C6.82838 0.999158 5.26355 2.87058 4.83352 5.03267C4.3358 5.0247 3.82614 5.09239 3.32444 5.25166C0.819922 6.04403 -0.569708 8.7118 0.22266 11.2163C1.01503 13.7208 3.6828 15.1105 6.18732 14.3181C7.37388 13.9438 8.3056 13.1435 8.87898 12.1401C10.1173 12.5781 11.499 12.6418 12.8488 12.2157C14.1986 11.7897 15.2936 10.9456 16.0541 9.87447C17.0973 10.3682 18.3197 10.4877 19.5102 10.1134C22.0148 9.32101 23.4044 6.65324 22.612 4.14872C21.8197 1.6442 19.1519 0.254572 16.6474 1.04694Z" fill="white"/>
</svg>
